DBRep_DrawableShape

CASCADE Topology V1, (c) Matra-Datavision
Locations 11
1
              1               0               0               0 
              0               1               0               0 
              0               0               1               0 
1
              1               0               0               0 
              0               1               0               0 
              0               0               1               0 
1
              1               0               0               0 
              0               1               0               0 
              0               0               1               0 
1
              1               0               0               0 
              0               1               0               0 
              0               0               1               0 
1
              1               0               0               0 
              0               1               0               0 
              0               0               1               0 
2  2 1 3 1 4 1 5 1 0
2  5 -1 4 -1 3 -1 2 -1 0
1
              1               0               0               0 
              0               1               0               0 
              0               0               1               0 
1
              1               0               0               0 
              0               1               0               0 
              0               0               1               0 
2  8 1 9 1 4 1 5 1 0
2  5 -1 4 -1 9 -1 8 -1 0
Curve2ds 30
8 -10000000 10000000
1 0 1 1 0 
8 -10000000 10000000
1 0 -1 1 0 
2 0 0 1 0 -0 1 5.9160797830996161
7 0 0  8 177 26  3.1415926535897931 1.4033482475752073  3.214193875404781 1.4033482475752073  3.2867949595865866 1.4023300089675104  3.3582141748029244 1.4002936148626759  3.4272640165727353 1.397273364567809  3.4930135106606031 1.3933397615173817  3.5549947671756854 1.3885791336551847  3.613014436292858 1.3830791111093805  3.7203098584179908 1.3708632352332413  3.7697080428338317 1.3641677112932691  3.8152882284999521 1.3569160239067841  3.8572490263588861 1.3491833569233336  3.8958703895013969 1.3410348376235248  3.9314496821110945 1.3325252908848912  3.9642717864681742 1.3237012137204585  4.0543177348980564 1.2966870695709658  4.1043773221845186 1.2777048928871864  4.1468132610498287 1.2579540656734025  4.1833324851286307 1.2376236940490344  4.2150715628122271 1.2168391323803007  4.2429346378175978 1.1956919724493673  4.2675834476476595 1.1742488596199427  4.3320852912343168 1.1105403198805421  4.3645276268102862 1.0676004912163535  4.3906570624149026 1.0241112138232893  4.4121675873248023 0.98021972285278025  4.4302414693247556 0.93603705082114175  4.4456075656653411 0.89162574486272206  4.4588108115827279 0.84703551364076624  4.4809549516071625 0.76036220126909304  4.4901109717887406 0.71829665905950235  4.4980301497317186 0.67613310323904585  4.5049255779615578 0.63389073196830736  4.5109528593810637 0.59158380691656021  4.5162313413417641 0.5492235522876181  4.5208515417909654 0.50681880133170421  4.5324482728994644 0.38479843049806089  4.5379491281255468 0.30508942653800375  4.5418582466427324 0.22529833467950766  4.5444020383438328 0.14545448795388438  4.5457141354381747 0.065581944445568752  4.5458396965668726 -0.014298621331235495  4.5447582399197577 -0.094166392366602597  4.5402408546572204 -0.24384770562389496  4.5371160572349254 -0.31367008093184268  4.5328946136360173 -0.38344690109647672  4.5274342185111891 -0.45315861142898939  4.5205303527854994 -0.52278192105495691  4.5118431092869287 -0.59228279314100973  4.5008919139384611 -0.66161617188653166  4.4804586011221943 -0.76091251904947477  4.4736151545530021 -0.79108382930928356  4.4660631424181076 -0.8211982437717964  4.4576999772805266 -0.85124657500847434  4.4483960991550759 -0.88121723844231781  4.4379870399215893 -0.91109556274494041  4.4262553857102009 -0.94086211469628289  4.4003640823721604 -0.99826411622102706  4.3864020878526464 -1.0259165097341054  4.370750648902245 -1.0534229048694321  4.3530856263510032 -1.0807541306094208  4.3329760034523304 -1.1078701596727285  4.3098459392986763 -1.1347175366369684  4.2828774692835454 -1.1612191062332  4.2357551791561043 -1.1994461046207157  4.2195923507082895 -1.2115418982467738  4.2021738504942583 -1.2235201069602211  4.1833464463628856 -1.2353648393227934  4.1629290824446716 -1.2470570192283255  4.1407066663028784 -1.2585733262441887  4.1164241068855247 -1.2698846421941103  4.0639697091587053 -1.2916774482147673  4.0359431791176803 -1.3021738109090046  4.0054283739041665 -1.3124095220088137  3.972112599003367 -1.3223438334675848  3.9356458074493332 -1.3319275812968812  3.8956398737222813 -1.341100107232422  3.8517012412693461 -1.3497868960484525  3.7568714853270264 -1.3657605234136387  3.7062406653144535 -1.3730826313801572  3.6513713014628593 -1.379787400666828  3.5920837338126148 -1.3857840065466007  3.5283614975924138 -1.3909727916079646  3.4605206797409664 -1.395248360101732  3.3893771226501954 -1.3985234072843613  3.2449841465069404 -1.4028929321658516  3.171869961217908 -1.4040523408455101  3.0976988249003625 -1.4041710567671544  3.0237278559779952 -1.4032268955670588  2.9513602840361273 -1.401238827722409  2.8816662075869317 -1.3982674797655363  2.8153302048636522 -1.3943907689455846  2.6920788117119576 -1.3851438110306795  2.6349336815676452 -1.3798240136895856  2.5816304105755989 -1.3738118468445464  2.5322306388152356 -1.367190662149369  2.4865763531270204 -1.3600385751497015  2.4444307556382228 -1.3524237744552465  2.4055198924023395 -1.3444052711739627  2.3347391315866557 -1.3279232637175598  2.3026871977352652 -1.3194814963864361  2.273160649204037 -1.3107540006487142  2.2459057355172263 -1.3017790552063389  2.2206896752393135 -1.2925883355740666  2.1973057557935114 -1.2832081874310384  2.1755703942077638 -1.2736608147131814  2.1160920000726273 -1.2451793200004646  2.0824452760559566 -1.2258363813010753  2.0532073837247893 -1.2060727012040218  2.027519503891881 -1.1859771909390133  2.0047502925607574 -1.1656129431433868  1.9844209587574788 -1.1450273496105123  1.9661531485531627 -1.1242562819028961  1.9187030991466945 -1.0640877034460181  1.8939563916821953 -1.0242948898737723  1.8734387729728041 -0.98413581883733059  1.8561255543281732 -0.94370147127210657  1.8412982802610713 -0.90305731290300173  1.82847660770517 -0.86224563087137085  1.817298916755637 -0.82129894702452  1.7903423477026568 -0.70839040517615059  1.7773994561835025 -0.63619975073311252  1.7672257841995815 -0.56379862408380177  1.7591939059457218 -0.49124470378501428  1.7528465211153161 -0.41858252577844723  1.7479246289619823 -0.34584028523363486  1.7442412510002923 -0.27304184409616034  1.7397775080339615 -0.14558041610129888  1.738501491474693 -0.090933486342936964  1.7378171486742702 -0.036274227660294374  1.7377020066414943 0.018390091434103133  1.7381514361419033 0.073052679329249123  1.7391772868091813 0.12770666627340155  1.7408101830017815 0.18234452342609747  1.7448269534569829 0.2779171554381924  1.7469210875150369 0.31886282571804769  1.7494110399672727 0.35979076256990733  1.7523285307905825 0.40069676850467234  1.7557143521124035 0.44157606168508567  1.7596213596076216 0.48242297722993099  1.7641199457303713 0.52323046095558523  1.7731955315685048 0.59455852650443008  1.7774718574694846 0.62510035751104065  1.7821752918271732 0.65561099814772261  1.7873552139651627 0.68608583927315747  1.7930711655943348 0.71651941882171288  1.7993967082862108 0.7469050748197924  1.8064260360124533 0.77723434562855642  1.8260693028576269 0.85288877508971905  1.8397186996301116 0.89812947364907814  1.8556488995254767 0.9431812174739207  1.8744495137070771 0.98798994405751728  1.8969099457126504 1.0324885351665216  1.9243320123248395 1.0765535478509491  1.9585806394247895 1.1200241377912035  2.0266485697330197 1.183702928012428  2.0521201960643793 1.20467466548223  2.0809147989748453 1.225338685841507  2.1137144704534876 1.2456256434015813  2.151449389303707 1.2654400186493149  2.1952810862967453 1.2846518063358872  2.2469480120040477 1.3030641816417168  2.339179277932856 1.3290248502185698  2.3723779359611417 1.33740216197428  2.4082802036668443 1.345464709458897  2.4471460655968094 1.3531680671952282  2.4892416543479139 1.3604592089404226  2.5348053663441186 1.367275989196064  2.5839852229286646 1.3735488013513426  2.6895097306141538 1.3848600235672546  2.7458543452262347 1.3898985107202861  2.8057491705112625 1.3942469561816324  2.8689783697918756 1.3978300075459629  2.9350840625211276 1.4005749383595685  3.0032384343799094 1.4024237916278253  3.0724155027951583 1.4033482475752073  3.1415926535897918 1.4033482475752073 
 0 9 0.098174770424686544 7 0.19481556006148998 7 0.38507711465894678 7 0.75370887669151454 7 1.0993011535970458 7 1.7472866727949163 7 2.3142740020930526 7 2.5623309586609855 7 2.7948843554434202 7 2.9038937601851811 7 3.0094966210287577 7 3.1117993924709726 7 3.2109052023056184 7 3.3069139555829308 7 3.3999224353203283 7 3.5801263648115342 7 3.9180087326075412 7 4.5093028762505538 7 4.9527734839828126 7 5.2853764397820067 7 5.5348286566314009 7 5.9090069819054936 7 6.096096144542539 7 6.1896407258610626 7 6.2831853071795862 9
2 0 0 1 0 -0 1 5.9160797830996161
7 0 0  8 177 26  4.7123889803846897 1.4033482475752073  4.7849902021996771 1.4033482475752073  4.8575912863793747 1.4023300089675104  4.9290105015952577 1.4002936148626759  4.9980603433396027 1.397273364567809  5.0638098374620313 1.3933397615173817  5.1257910939657449 1.3885791336551847  5.183810763087755 1.3830791111093805  5.291106185212886 1.3708632352332413  5.3405043696293637 1.3641677112932691  5.386084555294417 1.3569160239067841  5.4280453531539479 1.3491833569233336  5.4666667162971407 1.3410348376235248  5.5022460089057734 1.3325252908848912  5.5350681132630708 1.3237012137204585  5.6251140616929529 1.2966870695709658  5.6751736489841278 1.2777048928871864  5.717609587838524 1.2579540656734025  5.7541288119391538 1.2376236940490344  5.7858678895936464 1.2168391323803007  5.8137309646181166 1.1956919724493673  5.8383797744425561 1.1742488596199427  5.9028816180292134 1.1105403198805421  5.9353239536058027 1.0676004912163535  5.9614533892090549 1.0241112138232893  5.9829639141644293 0.98021972285278025  6.0010377961261838 0.93603705082114175  6.0164038924622218 0.89162574486272206  6.0296071383776244 0.84703551364076624  6.0517512784020591 0.76036220126909304  6.0609072985835057 0.71829665905950235  6.0688264765280735 0.67613310323904585  6.0757219047573017 0.63389073196830736  6.0817491861759834 0.59158380691656021  6.0870276681376367 0.5492235522876181  6.0916478685858637 0.50681880133170421  6.1032445996943618 0.38479843049806084  6.1087454549169706 0.30508942653800375  6.1126545734550746 0.22529833467945082  6.1151983651034243 0.14545448795399807  6.1165104622414219 0.065581944445511908  6.1166360233592059 -0.014298621331221284  6.1155545667146551 -0.094166392366602597  6.1110371814521178 -0.24384770562389496  6.1079123840345346 -0.31367008093184268  6.1036909404319886 -0.38344690109647672  6.0982305453180743 -0.45315861142898939  6.0913266795869276 -0.52278192105495691  6.0826394360856284 -0.59228279314100973  6.0716882407333577 -0.66161617188653166  6.0512549279170909 -0.76091251904947477  6.0444114813480221 -0.79108382930928356  6.0368594692120325 -0.8211982437717964  6.028496304075361 -0.85124657500847434  6.0191924259509051 -0.88121723844231781  6.0087833667164396 -0.91109556274494041  5.9970517125050984 -0.94086211469628289  5.9711604091670569 -0.99826411622102706  5.9571984146467285 -1.0259165097341054  5.9415469756982588 -1.0534229048694321  5.9238819531462923 -1.0807541306094208  5.903772330246511 -1.1078701596727285  5.8806422660942079 -1.1347175366369684  5.853673796078442 -1.1612191062332  5.8065515059510018 -1.1994461046207157  5.7903886775032447 -1.2115418982467738  5.7729701772890687 -1.2235201069602211  5.7541427731575867 -1.2353648393227934  5.7337254092394527 -1.2470570192283255  5.7115029930978034 -1.2585733262441887  5.6872204336804222 -1.2698846421941103  5.6347660359536027 -1.2916774482147673  5.6067395059114222 -1.3021738109090046  5.5762247007019994 -1.3124095220088137  5.5429089257986561 -1.3223438334675848  5.5064421342422065 -1.3319275812968812  5.466436200519178 -1.341100107232422  5.4224975680642435 -1.3497868960484525  5.3276678121219234 -1.3657605234136387  5.2770369921095153 -1.3730826313801572  5.2221676282533736 -1.379787400666828  5.162880060612224 -1.3857840065466007  5.0991578243847471 -1.3909727916079646  5.0313170065319355 -1.395248360101732  4.960173449445092 -1.3985234072843613  4.815780473301837 -1.4028929321658516  4.742666288012515 -1.4040523408455101  4.6684951516726869 -1.4041710567671544  4.5945241827903374 -1.4032268955670588  4.5221566108120896 -1.401238827722409  4.452462534381084 -1.3982674797655363  4.3861265316585483 -1.3943907689455846  4.2628751385068533 -1.3851438110306795  4.2057300083620248 -1.3798240136895856  4.1524267373733892 -1.3738118468445464  4.1030269656184828 -1.367190662149369  4.0573726799211727 -1.3600385751497015  4.0152270824332845 -1.3524237744552465  3.9763162191972361 -1.3444052711739627  3.9055354583815536 -1.3279232637175598  3.8734835245304993 -1.3194814963864361  3.8439569759982106 -1.3107540006487142  3.8167020623118333 -1.3017790552063389  3.7914860020346737 -1.2925883355740666  3.7681020825882765 -1.2832081874310384  3.7463667210026608 -1.2736608147131814  3.686888326867523 -1.2451793200004646  3.653241602850934 -1.2258363813010753  3.6240037105196876 -1.2060727012040218  3.598315830686488 -1.1859771909390133  3.5755466193555208 -1.1656129431433868  3.5552172855527546 -1.1450273496105123  3.5369494753480586 -1.1242562819028961  3.4894994259415908 -1.0640877034460181  3.4647527184761202 -1.0242948898737723  3.4442350997542235 -0.98413581883733059  3.4269218811350584 -0.94370147127210657  3.4120946070452192 -0.90305731290300173  3.3992729345004591 -0.86224563087137085  3.3880952435505334 -0.82129894702452  3.3611386744975533 -0.70839040517615059  3.3481957829767452 -0.63619975073311252  3.3380221110019193 -0.56379862408380177  3.329990232745331 -0.49124470378501428  3.3236428479067399 -0.41858252577844723  3.3187209557549977 -0.34584028523363486  3.3150375777951884 -0.27304184409616034  3.3105738348288587 -0.14558041610129888  3.3092978182696244 -0.090933486342936964  3.308613475469159 -0.036274227660294374  3.3084983334363511 0.018390091434103133  3.3089477629367927 0.073052679329249123  3.309973613604114 0.12770666627340155  3.3116065097966785 0.18234452342609747  3.3156232802518795 0.2779171554381924  3.3177174143098624 0.31886282571804769  3.320207366762177 0.35979076256990733  3.3231248575855479 0.40069676850467234  3.3265106789073076 0.44157606168508567  3.3304176864024466 0.48242297722993099  3.3349162725252675 0.52323046095558523  3.3439918583634016 0.59455852650443008  3.3482681842643793 0.62510035751104065  3.3529716186220151 0.65561099814772261  3.3581515407599727 0.68608583927315747  3.3638674923891752 0.71651941882171288  3.3701930350811038 0.7469050748197924  3.3772223628073492 0.77723434562855642  3.3968656296525235 0.85288877508971905  3.4105150264226722 0.89812947364907814  3.426445226323267 0.9431812174739207  3.4452458404666686 0.98798994405751728  3.4677062725058931 1.0324885351665216  3.4951283391174002 1.0765535478509491  3.5293769662196861 1.1200241377912035  3.5974448965279162 1.183702928012428  3.622916522858759 1.20467466548223  3.6517111257726356 1.225338685841507  3.6845107972440019 1.2456256434015813  3.7222457161078637 1.2654400186493149  3.7660774130918071 1.2846518063358872  3.8177443387989443 1.3030641816417168  3.9099756047277534 1.3290248502185698  3.9431742627560351 1.33740216197428  3.9790765304617364 1.345464709458897  4.017942392391701 1.3531680671952282  4.0600379811428056 1.3604592089404226  4.105601693139012 1.367275989196064  4.1547815497235607 1.3735488013513426  4.2603060574090508 1.3848600235672546  4.316650672018568 1.3898985107202861  4.3765454972890439 1.3942469561816324  4.4397746965732949 1.3978300075459629  4.505880389295271 1.4005749383595685  4.574034761175426 1.4024237916278253  4.6432118295900544 1.4033482475752073  4.7123889803846879 1.4033482475752073 
 0 9 0.098174770424690624 7 0.19481556006149486 7 0.38507711465895333 7 0.75370887669152431 7 1.0993011535970585 7 1.7472866727949365 7 2.3142740020930797 7 2.5623309586610175 7 2.7948843554434597 7 2.9038937601852259 7 3.0094966210288074 7 3.1117993924710246 7 3.2109052023056721 7 3.3069139555829872 7 3.3999224353203799 7 3.5801263648115809 7 3.9180087326075812 7 4.5093028762505831 7 4.9527734839828339 7 5.2853764397820227 7 5.5348286566314151 7 5.9090069819055033 7 6.0960961445425461 7 6.1896407258610679 7 6.2831853071795862 9
8 -10000000 10000000
1 11 0 0 1 
8 -10000000 10000000
1 -1 0 0 -1 
8 -10000000 10000000
1 11 0 0 1 
8 -10000000 10000000
1 0 -1 1 0 
8 -10000000 10000000
1 -1 0 0 1 
8 -10000000 10000000
1 -1 0 0 -1 
2 0 0 1 0 -0 1 5.9160797830996161
1 0 -0.16744807921968932 1 0 
8 -10000000 10000000
1 0 -11 1 0 
8 -10000000 10000000
1 0 -1 1 0 
8 -10000000 10000000
1 -1 0 0 1 
8 -10000000 10000000
1 0 11 1 0 
8 -10000000 10000000
1 0 11 -1 0 
8 -10000000 10000000
1 11 0 0 -1 
8 -10000000 10000000
1 -1 0 0 1 
8 -10000000 10000000
1 0 -1 1 0 
8 -10000000 10000000
1 0 11 -1 0 
8 -10000000 10000000
1 0 1 -1 0 
8 -10000000 10000000
1 11 0 0 1 
8 -10000000 10000000
1 -1 0 0 -1 
8 -10000000 10000000
1 11 0 0 1 
8 -10000000 10000000
1 11 0 0 -1 
8 -10000000 10000000
1 0 11 -1 0 
8 -10000000 10000000
1 0 -11 -1 0 
Curves 15
8 -10000000 10000000
1 -1 -1 0 0 0 1 
2 -1 0 0 1 0 0 -0 0 1 0 -1 0 5.9160797830996161
2 0 -1 0 0 1 0 0 -0 1 1 0 -0 5.9160797830996161
8 -10000000 10000000
1 -1 0 11 0 -1 0 
8 -10000000 10000000
1 0 -1 11 1 0 0 
8 -10000000 10000000
1 -1 0 -1 0 -1 0 
2 0 0 -1 0 0 1 1 0 -0 -0 1 0 5.9160797830996161
8 -10000000 10000000
1 -1 11 0 0 0 1 
8 -10000000 10000000
1 0 11 -1 1 0 0 
8 -10000000 10000000
1 0 11 11 -1 0 0 
8 -10000000 10000000
1 0 -1 -1 1 0 0 
8 -10000000 10000000
1 11 -1 0 0 0 -1 
8 -10000000 10000000
1 11 0 -1 0 1 0 
8 -10000000 10000000
1 11 0 11 0 1 0 
8 -10000000 10000000
1 11 11 0 0 0 -1 
Polygon3D 0
PolygonOnTriangulations 0
Surfaces 7
1 -1 0 0 1 0 -0 0 0 1 0 -1 0 
1 0 -1 0 -0 1 0 0 0 1 1 0 -0 
4 0 0 0 0 0 1 1 0 -0 -0 1 0 6
1 0 0 11 0 0 1 1 0 -0 -0 1 0 
1 0 0 -1 0 0 1 1 0 -0 -0 1 0 
1 0 11 0 -0 1 0 0 0 1 1 0 -0 
1 11 0 0 1 0 -0 0 0 1 0 -1 0 
Triangulations 0

TShapes 42
Ve
2.00000001779823e-07
-1 -1 5.8309518948453
5.8309518948453 1 1 0
5.8309518948453 2 1 1 6
5.8309518948453 2 2 2 6
0.169846288083674 1 2 0
0.169846288083674 2 3 1 6
0.169846288083674 2 4 3 10
6.11333901909591 1 3 0
6.11333901909591 2 5 2 6
6.11333901909591 2 6 3 10
0 0

0101101
*
Ve
2e-07
-1 -1 11
1 1 4 0
1 2 7 1 6
1 2 8 4 6
11 1 1 0
11 2 1 1 6
11 2 2 2 6
-1 1 5 0
-1 2 9 2 6
-1 2 10 4 6
0 0

0101101
*
Ed
 1e-07 1 1 0
1  1 0 5.8309518948453 11
2  1 1 6 5.8309518948453 11
2  2 2 6 5.8309518948453 11
0

0101000
+42 0 -41 0 *
Ve
2.00565322768068e-07
-1.00000000027859 5.83095189479752 -1
4.54254269283012 1 2 0
4.54254269283012 2 3 1 6
4.54254269283012 2 4 3 10
-5.8309518948453 1 6 0
-5.8309518948453 2 11 1 6
-5.8309518948453 2 12 5 6
1.74064261502191 1 7 0
1.74064261502191 2 13 5 6
1.74064261502191 2 14 3 10
0 0

0101101
*
Ed
 1e-07 1 1 0
1  2 0 0.169846288083674 4.54254269283012
2  3 1 6 0.169846288083674 4.54254269283012
2  4 3 10 0.169846288083674 4.54254269283012
0

0101100
+42 0 -39 0 *
Ve
2e-07
-1 11 -1
-11 1 6 0
-11 2 11 1 6
-11 2 12 5 6
-1 1 8 0
-1 2 15 1 6
-1 2 16 6 6
-1 1 9 0
-1 2 17 6 6
-1 2 18 5 6
0 0

0101101
*
Ed
 1e-07 1 1 0
1  6 0 -11 -5.8309518948453
2  11 1 6 -11 -5.8309518948453
2  12 5 6 -11 -5.8309518948453
0

0101000
+37 0 -39 0 *
Ve
2e-07
-1 11 11
11 1 8 0
11 2 15 1 6
11 2 16 6 6
-11 1 4 0
-11 2 7 1 6
-11 2 8 4 6
1 1 10 0
1 2 19 4 6
1 2 20 6 6
0 0

0101101
*
Ed
 1e-07 1 1 0
1  8 0 -1 11
2  15 1 6 -1 11
2  16 6 6 -1 11
0

0101000
+37 0 -35 0 *
Ed
 1e-07 1 1 0
1  4 0 -11 1
2  7 1 6 -11 1
2  8 4 6 -11 1
0

0101000
+35 0 -41 0 *
Wi

0101100
-40 0 -38 0 -36 0 +34 0 +33 0 *
Fa
0  1e-07 1 0

0101000
+32 7 *
Ve
0.501808419317669
5.87351583897246 -0.500000000000001 -1
5.8309518948453 1 11 0
5.8309518948453 2 21 2 6
5.8309518948453 2 22 5 6
1.74064261487857 1 3 0
1.74064261487857 2 5 2 6
1.74064261487857 2 6 3 10
6.11333901909591 1 7 0
6.11333901909591 2 13 5 6
6.11333901909591 2 14 3 10
0 0

0101101
*
Ve
2e-07
11 -1 -1
1 1 12 0
1 2 23 2 6
1 2 24 7 6
11 1 11 0
11 2 21 2 6
11 2 22 5 6
-1 1 13 0
-1 2 25 5 6
-1 2 26 7 6
0 0

0101101
*
Ed
 1e-07 1 1 0
1  11 0 5.8309518948453 11
2  21 2 6 5.8309518948453 11
2  22 5 6 5.8309518948453 11
0

0101000
+30 0 -29 0 *
Ed
 1e-07 1 1 0
1  3 0 1.74064261487857 6.11333901909591
2  5 2 6 1.74064261487857 6.11333901909591
2  6 3 10 1.74064261487857 6.11333901909591
0

0101100
+30 0 -42 0 *
Ve
2e-07
11 -1 11
11 1 5 0
11 2 9 2 6
11 2 10 4 6
-11 1 12 0
-11 2 23 2 6
-11 2 24 7 6
-1 1 14 0
-1 2 27 4 6
-1 2 28 7 6
0 0

0101101
*
Ed
 1e-07 1 1 0
1  5 0 -1 11
2  9 2 6 -1 11
2  10 4 6 -1 11
0

0101000
+41 0 -26 0 *
Ed
 1e-07 1 1 0
1  12 0 -11 1
2  23 2 6 -11 1
2  24 7 6 -11 1
0

0101000
+26 0 -29 0 *
Wi

0101100
-28 0 -27 0 +40 0 +25 0 +24 0 *
Fa
0  1e-07 2 0

0101000
+23 7 *
Ve
2e-07
11 11 11
11 1 14 0
11 2 27 4 6
11 2 28 7 6
-11 1 10 0
-11 2 19 4 6
-11 2 20 6 6
-11 1 15 0
-11 2 29 6 6
-11 2 30 7 6
0 0

0101101
*
Ed
 1e-07 1 1 0
1  10 0 -11 1
2  19 4 6 -11 1
2  20 6 6 -11 1
0

0101000
+21 0 -35 0 *
Ed
 1e-07 1 1 0
1  14 0 -1 11
2  27 4 6 -1 11
2  28 7 6 -1 11
0

0101000
+26 0 -21 0 *
Wi

0101100
+20 0 +33 0 +25 0 +19 0 *
Fa
0  1e-07 4 0

0101000
+18 7 *
Ve
2e-07
11 11 -1
1 1 15 0
1 2 29 6 6
1 2 30 7 6
11 1 9 0
11 2 17 6 6
11 2 18 5 6
11 1 13 0
11 2 25 5 6
11 2 26 7 6
0 0

0101101
*
Ed
 1e-07 1 1 0
1  9 0 -1 11
2  17 6 6 -1 11
2  18 5 6 -1 11
0

0101000
+37 0 -16 0 *
Ed
 1e-07 1 1 0
1  15 0 -11 1
2  29 6 6 -11 1
2  30 7 6 -11 1
0

0101000
+21 0 -16 0 *
Wi

0101100
-15 0 +34 0 -20 0 +14 0 *
Fa
0  1e-07 6 0

0101000
+13 7 *
Ed
 1e-07 1 1 0
1  13 0 -1 11
2  25 5 6 -1 11
2  26 7 6 -1 11
0

0101000
+29 0 -16 0 *
Ed
 1e-07 1 1 0
1  7 0 1.74064261502191 6.28318530717959
2  13 5 6 1.74064261502191 6.28318530717959
2  14 3 10 1.74064261502191 6.28318530717959
0

0101100
+39 0 -30 0 *
Wi

0101100
+11 0 -15 0 +36 0 -10 0 +28 0 *
Fa
0  1e-07 5 0

0101000
+9 7 *
Wi

0101100
-38 0 -27 0 -10 0 *
Fa
0  1e-07 3 0

0101000
+7 11 *
Wi

0101100
+24 0 +11 0 -14 0 -19 0 *
Fa
0  1e-07 7 0

0101000
+5 7 *
Sh

0101100
-31 6 -22 6 +17 6 +12 6 -8 6 +6 10 +4 6 *
So

0100000
+3 0 *
Co

1100000
+2 1 *

+1 0 