ISO-10303-21;
HEADER;
FILE_DESCRIPTION(('FreeCAD Model'),'2;1');
FILE_NAME('Open CASCADE Shape Model','2026-05-28T13:51:12',(''),(''),
  'Open CASCADE STEP processor 7.8','FreeCAD','Unknown');
FILE_SCHEMA(('AUTOMOTIVE_DESIGN { 1 0 10303 214 1 1 1 1 }'));
ENDSEC;
DATA;
#1 = APPLICATION_PROTOCOL_DEFINITION('international standard',
  'automotive_design',2000,#2);
#2 = APPLICATION_CONTEXT(
  'core data for automotive mechanical design processes');
#3 = SHAPE_DEFINITION_REPRESENTATION(#4,#10);
#4 = PRODUCT_DEFINITION_SHAPE('','',#5);
#5 = PRODUCT_DEFINITION('design','',#6,#9);
#6 = PRODUCT_DEFINITION_FORMATION('','',#7);
#7 = PRODUCT('Face','Face','',(#8));
#8 = PRODUCT_CONTEXT('',#2,'mechanical');
#9 = PRODUCT_DEFINITION_CONTEXT('part definition',#2,'design');
#10 = MANIFOLD_SURFACE_SHAPE_REPRESENTATION('',(#11,#15),#69);
#11 = AXIS2_PLACEMENT_3D('',#12,#13,#14);
#12 = CARTESIAN_POINT('',(0.,0.,0.));
#13 = DIRECTION('',(0.,0.,1.));
#14 = DIRECTION('',(1.,0.,-0.));
#15 = SHELL_BASED_SURFACE_MODEL('',(#16));
#16 = OPEN_SHELL('',(#17));
#17 = ADVANCED_FACE('',(#18),#52,.T.);
#18 = FACE_BOUND('',#19,.T.);
#19 = EDGE_LOOP('',(#20,#30,#38,#46));
#20 = ORIENTED_EDGE('',*,*,#21,.T.);
#21 = EDGE_CURVE('',#22,#24,#26,.T.);
#22 = VERTEX_POINT('',#23);
#23 = CARTESIAN_POINT('',(7.128691,6.615213,0.));
#24 = VERTEX_POINT('',#25);
#25 = CARTESIAN_POINT('',(-8.634635,6.615213,0.));
#26 = LINE('',#27,#28);
#27 = CARTESIAN_POINT('',(7.128691,6.615213,0.));
#28 = VECTOR('',#29,1.);
#29 = DIRECTION('',(-1.,0.,0.));
#30 = ORIENTED_EDGE('',*,*,#31,.T.);
#31 = EDGE_CURVE('',#24,#32,#34,.T.);
#32 = VERTEX_POINT('',#33);
#33 = CARTESIAN_POINT('',(-8.634635,-6.342075,0.));
#34 = LINE('',#35,#36);
#35 = CARTESIAN_POINT('',(-8.634635,6.615213,0.));
#36 = VECTOR('',#37,1.);
#37 = DIRECTION('',(0.,-1.,0.));
#38 = ORIENTED_EDGE('',*,*,#39,.T.);
#39 = EDGE_CURVE('',#32,#40,#42,.T.);
#40 = VERTEX_POINT('',#41);
#41 = CARTESIAN_POINT('',(7.128691,-6.342075,0.));
#42 = LINE('',#43,#44);
#43 = CARTESIAN_POINT('',(-8.634635,-6.342075,0.));
#44 = VECTOR('',#45,1.);
#45 = DIRECTION('',(1.,0.,0.));
#46 = ORIENTED_EDGE('',*,*,#47,.T.);
#47 = EDGE_CURVE('',#40,#22,#48,.T.);
#48 = LINE('',#49,#50);
#49 = CARTESIAN_POINT('',(7.128691,-6.342075,0.));
#50 = VECTOR('',#51,1.);
#51 = DIRECTION('',(0.,1.,0.));
#52 = B_SPLINE_SURFACE_WITH_KNOTS('',3,3,(
    (#53,#54,#55,#56)
    ,(#57,#58,#59,#60)
    ,(#61,#62,#63,#64)
    ,(#65,#66,#67,#68
    )),.UNSPECIFIED.,.F.,.F.,.F.,(4,4),(4,4),(-8.6698293,8.6698293),(
    -7.1265084,7.1265084),.PIECEWISE_BEZIER_KNOTS.);
#53 = CARTESIAN_POINT('',(-9.4228013,-6.9899394,0.));
#54 = CARTESIAN_POINT('',(-9.4228013,-2.2389338,0.));
#55 = CARTESIAN_POINT('',(-9.4228013,2.5120718,0.));
#56 = CARTESIAN_POINT('',(-9.4228013,7.2630774,0.));
#57 = CARTESIAN_POINT('',(-3.6429151,-6.9899394,0.));
#58 = CARTESIAN_POINT('',(-3.6429151,-2.2389338,0.));
#59 = CARTESIAN_POINT('',(-3.6429151,2.5120718,0.));
#60 = CARTESIAN_POINT('',(-3.6429151,7.2630774,0.));
#61 = CARTESIAN_POINT('',(2.1369711,-6.9899394,0.));
#62 = CARTESIAN_POINT('',(2.1369711,-2.2389338,0.));
#63 = CARTESIAN_POINT('',(2.1369711,2.5120718,0.));
#64 = CARTESIAN_POINT('',(2.1369711,7.2630774,0.));
#65 = CARTESIAN_POINT('',(7.9168573,-6.9899394,0.));
#66 = CARTESIAN_POINT('',(7.9168573,-2.2389338,0.));
#67 = CARTESIAN_POINT('',(7.9168573,2.5120718,0.));
#68 = CARTESIAN_POINT('',(7.9168573,7.2630774,0.));
#69 = ( GEOMETRIC_REPRESENTATION_CONTEXT(3) 
GLOBAL_UNCERTAINTY_ASSIGNED_CONTEXT((#73)) GLOBAL_UNIT_ASSIGNED_CONTEXT(
(#70,#71,#72)) REPRESENTATION_CONTEXT('Context #1',
  '3D Context with UNIT and UNCERTAINTY') );
#70 = ( LENGTH_UNIT() NAMED_UNIT(*) SI_UNIT(.MILLI.,.METRE.) );
#71 = ( NAMED_UNIT(*) PLANE_ANGLE_UNIT() SI_UNIT($,.RADIAN.) );
#72 = ( NAMED_UNIT(*) SI_UNIT($,.STERADIAN.) SOLID_ANGLE_UNIT() );
#73 = UNCERTAINTY_MEASURE_WITH_UNIT(LENGTH_MEASURE(1.E-07),#70,
  'distance_accuracy_value','confusion accuracy');
#74 = PRODUCT_RELATED_PRODUCT_CATEGORY('part',$,(#7));
#75 = MECHANICAL_DESIGN_GEOMETRIC_PRESENTATION_REPRESENTATION('',(#76),
  #69);
#76 = STYLED_ITEM('color',(#77),#17);
#77 = PRESENTATION_STYLE_ASSIGNMENT((#78,#84));
#78 = SURFACE_STYLE_USAGE(.BOTH.,#79);
#79 = SURFACE_SIDE_STYLE('',(#80));
#80 = SURFACE_STYLE_FILL_AREA(#81);
#81 = FILL_AREA_STYLE('',(#82));
#82 = FILL_AREA_STYLE_COLOUR('',#83);
#83 = COLOUR_RGB('',0.678431390124,0.709803936702,0.741176476869);
#84 = CURVE_STYLE('',#85,POSITIVE_LENGTH_MEASURE(0.1),#86);
#85 = DRAUGHTING_PRE_DEFINED_CURVE_FONT('continuous');
#86 = COLOUR_RGB('',9.803921802644E-02,9.803921802644E-02,
  9.803921802644E-02);
ENDSEC;
END-ISO-10303-21;
